<svg width="96" height="97" viewBox="0 0 96 97" fill="none" xmlns="http://www.w3.org/2000/svg">
<g id="icon / jam-icons / outline &#38; logos / play">
<path id="Vector" d="M71.28 50.592C71.5608 50.1512 71.7502 49.6585 71.837 49.1432C71.9238 48.6278 71.9062 48.1003 71.7854 47.5918C71.6645 47.0834 71.4428 46.6044 71.1334 46.1832C70.8239 45.7621 70.4331 45.4073 69.984 45.14L30.296 21.012C29.6506 20.6213 28.9104 20.4152 28.156 20.416C25.916 20.416 24.104 22.188 24.104 24.376V72.62C24.104 73.36 24.316 74.084 24.716 74.712C25.9 76.568 28.396 77.136 30.296 75.98L69.984 51.856C70.508 51.536 70.956 51.1 71.284 50.588L71.28 50.592ZM74.264 58.58L34.58 82.704C28.88 86.172 21.38 84.464 17.836 78.9C16.6378 77.0245 16.0008 74.8456 16 72.62V24.38C16 17.816 21.44 12.5 28.16 12.5C30.428 12.5 32.652 13.12 34.58 14.292L74.264 38.42C79.964 41.884 81.712 49.204 78.164 54.772C77.18 56.316 75.844 57.62 74.264 58.58Z" fill="white"/>
</g>
</svg>
